{"title":"[GAY] 2 Hot Latin Boys Bareback Outdoors","uid":7956412,"size":113641997,"categoryP":"porn","categoryS":"movie_clips","magnet":"?xt=urn:btih:ccd9ae394d2dd3938bc80e1c5dc361c38437b56a&amp;dn=%5BGAY%5D+2+Hot+Latin+Boys+Bareback+Outdoors&amp;tr=udp%3A%2F%2Ftracker.openbittorrent.com%3A80&amp;tr=udp%3A%2F%2Fopen.demonii.com%3A1337&amp;tr=udp%3A%2F%2Ftracker.coppersurfer.tk%3A6969&amp;tr=udp%3A%2F%2Fexodus.desync.com%3A6969","seeders":1,"leechers":1,"uploader":"GaySubsGR","files":-1,"time":1356446495,"description":"General\nFormat                                   : Flash Video\nFile size                                : 108 MiB\nDuration                                 : 21mn 10s\nOverall bit rate mode                    : Variable\nOverall bit rate                         : 716 Kbps\nTagging application                      : Yet Another Metadata Injector for FLV - Version 1.2\n\nVideo\nFormat                                   : Sorenson Spark\nCodec ID                                 : 2\nDuration                                 : 21mn 10s\nBit rate                                 : 589 Kbps\nWidth                                    : 480 pixels\nHeight                                   : 360 pixels\nDisplay aspect ratio                     : 4:3\nFrame rate mode                          : Constant\nFrame rate                               : 25.000 fps\nBit depth                                : 8 bits\nBits/(Pixel*Frame)                       : 0.136\nStream size                              : 91.6 MiB (85%)\n\nAudio\nFormat                                   : MPEG Audio\nFormat version                           : Version 1\nFormat profile                           : Layer 3\nMode                                     : Joint stereo\nCodec ID                                 : 2\nCodec ID/Hint                            : MP3\nDuration                                 : 21mn 9s\nBit rate mode                            : Variable\nBit rate                                 : 103 Kbps\nChannel(s)                               : 2 channels\nSampling rate                            : 44.1 KHz\nCompression mode                         : Lossy\nStream size                              : 16.4 MiB (15%)\n\n** GREEK **\nKali proboli kai SEED-arete! :)","torrent":{"xt":"urn:btih:ccd9ae394d2dd3938bc80e1c5dc361c38437b56a","amp;dn":"%5BGAY%5D+2+Hot+Latin+Boys+Bareback+Outdoors","amp;tr":["udp%3A%2F%2Ftracker.openbittorrent.com%3A80","udp%3A%2F%2Fopen.demonii.com%3A1337","udp%3A%2F%2Ftracker.coppersurfer.tk%3A6969","udp%3A%2F%2Fexodus.desync.com%3A6969"],"infoHash":"ccd9ae394d2dd3938bc80e1c5dc361c38437b56a","infoHashBuffer":{"type":"Buffer","data":[204,217,174,57,77,45,211,147,139,200,14,28,93,195,97,195,132,55,181,106]},"announce":[],"urlList":[]}}